<?xml version="1.0" encoding="UTF-8" standalone="no"?>
<!-- Created with Inkscape (http://www.inkscape.org/) -->

<svg
   xmlns:dc="http://purl.org/dc/elements/1.1/"
   xmlns:cc="http://creativecommons.org/ns#"
   xmlns:rdf="http://www.w3.org/1999/02/22-rdf-syntax-ns#"
   xmlns:svg="http://www.w3.org/2000/svg"
   xmlns="http://www.w3.org/2000/svg"
   xmlns:sodipodi="http://sodipodi.sourceforge.net/DTD/sodipodi-0.dtd"
   xmlns:inkscape="http://www.inkscape.org/namespaces/inkscape"
   width="210mm"
   height="297mm"
   viewBox="0 0 210 297"
   version="1.1"
   id="svg8"
   inkscape:version="0.92.3 (unknown)"
   sodipodi:docname="ezed.svg">
  <defs
     id="defs2" />
  <sodipodi:namedview
     id="base"
     pagecolor="#ffffff"
     bordercolor="#666666"
     borderopacity="1.0"
     inkscape:pageopacity="0.0"
     inkscape:pageshadow="2"
     inkscape:zoom="0.98994949"
     inkscape:cx="265.72912"
     inkscape:cy="608.69638"
     inkscape:document-units="mm"
     inkscape:current-layer="layer1"
     showgrid="false"
     inkscape:window-width="1360"
     inkscape:window-height="711"
     inkscape:window-x="0"
     inkscape:window-y="0"
     inkscape:window-maximized="1" />
  <metadata
     id="metadata5">
    <rdf:RDF>
      <cc:Work
         rdf:about="">
        <dc:format>image/svg+xml</dc:format>
        <dc:type
           rdf:resource="http://purl.org/dc/dcmitype/StillImage" />
        <dc:title></dc:title>
      </cc:Work>
    </rdf:RDF>
  </metadata>
  <g
     inkscape:label="Layer 1"
     inkscape:groupmode="layer"
     id="layer1">
    <path
       style="fill:#ececec;fill-rule:evenodd;stroke:#000000;stroke-width:0.26458332px;stroke-linecap:butt;stroke-linejoin:miter;stroke-opacity:1"
       d="m 83.922631,153.20899 c -7.6e-5,4.81085 1.02e-4,9.62171 0,14.43256 -0.561942,2.02165 -0.128743,4.20476 -0.890176,6.18469 -1.798854,0.93916 -4.086448,0.79583 -5.624765,2.25104 -2.001927,-0.004 -3.137658,3.69231 -0.369217,3.0436 4.212698,-0.0935 8.415413,1.56778 12.600656,0.41639 1.673644,-0.50263 4.20031,-1.51307 3.818905,-3.679 -0.681301,-1.93842 -1.703877,-3.7508 -2.256886,-5.75083 -1.116285,-2.6421 -0.761662,-5.5702 -1.407057,-8.3175 -0.142526,-2.95025 -1.154424,-5.79532 -1.154332,-8.75885 -0.535131,-2.29949 -3.541497,-1.40148 -4.565863,0.0342 z"
       id="path927"
       inkscape:connector-curvature="0" />
    <path
       style="fill:#f2f2f2;fill-rule:evenodd;stroke:#000000;stroke-width:0.26458332px;stroke-linecap:butt;stroke-linejoin:miter;stroke-opacity:1"
       d="m 71.093694,154.0108 c -0.851769,5.12942 -0.636971,10.47434 -2.388539,15.42659 -0.48899,2.17792 -2.654873,3.30347 -4.735098,2.65446 -1.863056,-0.45644 -3.438093,0.66186 -4.56352,2.02094 -1.01104,0.95943 -2.005167,2.64429 -1.023686,3.93326 1.467002,1.45063 3.557025,0.0862 5.305074,0.50026 2.86166,-0.11098 6.08333,0.71886 8.603257,-1.05791 1.641137,-1.46035 1.331866,-3.89666 2.419065,-5.67191 2.012996,-4.5585 1.574034,-9.65032 1.146906,-14.47733 -0.316809,-1.44933 -0.369361,-3.45264 -1.793538,-4.24645 -1.077848,-0.0655 -1.849432,1.21872 -2.969921,0.91809 z"
       id="path925"
       inkscape:connector-curvature="0" />
    <path
       style="fill:#0000ff;fill-rule:evenodd;stroke:#000000;stroke-width:0.26458332px;stroke-linecap:butt;stroke-linejoin:miter;stroke-opacity:1"
       d="m 71.789416,121.59088 c -0.725486,-1.25983 1.938698,-2.7473 3.04662,-3.36117 2.823465,-1.3212 6.021915,-1.81339 8.593296,-3.66395 2.468855,-0.98085 5.409763,-0.0759 7.513944,1.34336 1.690759,1.82708 2.649046,4.19368 4.15557,6.17165 1.62128,2.52506 2.366667,5.58758 1.868948,8.5653 -0.168057,4.58356 1.055091,9.07246 1.144258,13.64321 0.363333,2.63435 1.41908,5.30122 0.625192,7.96656 -0.810317,2.7574 -0.08107,5.63105 -0.339722,8.35823 -1.40628,2.32559 -4.296381,0.818 -6.108816,-0.13713 -2.325813,-1.195 -4.850601,-2.30746 -7.532352,-1.98962 -4.214975,0.21787 -8.13578,2.02586 -12.310599,2.52509 -2.546774,0.19654 -5.193984,0.53537 -7.67411,0.16058 -2.329012,-1.13211 -0.174928,-3.36038 0.416704,-4.91306 1.216074,-2.74532 3.362816,-5.13669 3.571829,-8.24682 1.501056,-7.38775 6.084463,-22.7062 3.524977,-26.13795"
       id="path958"
       inkscape:connector-curvature="0"
       sodipodi:nodetypes="cccccccccccccccc" />
    <path
       style="fill:#ffb380;fill-rule:evenodd;stroke:#000000;stroke-width:0.26458332px;stroke-linecap:butt;stroke-linejoin:miter;stroke-opacity:1"
       d="m 68.791964,110.25773 c 6.848247,8.44551 12.259797,9.27455 19.632223,4.08674 3.172149,-3.10078 7.186904,-6.66264 7.918417,-10.94544 0.366992,-2.95885 0.371331,-6.108399 -0.827471,-8.885533 -1.628609,-2.778435 -4.934829,-3.596565 -7.663105,-4.846117 -2.602734,-1.448941 -5.320542,-3.083541 -8.405334,-3.019294 -13.568543,-1.391534 -17.63039,14.519504 -10.65473,23.609644 z"
       id="path976"
       inkscape:connector-curvature="0"
       sodipodi:nodetypes="ccccccc" />
    <path
       style="fill:#e6e6e6;fill-rule:evenodd;stroke:#000000;stroke-width:0.26458332px;stroke-linecap:butt;stroke-linejoin:miter;stroke-opacity:1"
       d="m 74.946273,101.4964 c 0.469099,-0.8106 0.520906,-2.032219 -0.280102,-2.654611 -0.654057,-0.423084 -1.417949,-0.639769 -2.159626,-0.848343 -0.744042,-0.113807 -1.543805,0.282915 -1.837984,0.988734 -1.266537,3.95554 1.654884,5.58776 4.277712,2.51422 z"
       id="path840"
       inkscape:connector-curvature="0"
       sodipodi:nodetypes="ccccc" />
    <path
       style="fill:#ececec;fill-rule:evenodd;stroke:#000000;stroke-width:0.26458332px;stroke-linecap:butt;stroke-linejoin:miter;stroke-opacity:1"
       d="m 81.450388,98.619192 c -0.567199,0.699718 -0.68814,1.624458 -1.042839,2.428638 -0.337762,1.3778 0.89877,2.94605 2.349031,2.76559 1.944559,-0.46913 2.125091,-2.47399 2.074501,-4.034493 -0.177709,-0.647677 -0.450836,-1.439232 -1.175763,-1.63322 -0.759673,-0.08016 -1.549576,0.07537 -2.20493,0.473485 z"
       id="path842"
       inkscape:connector-curvature="0"
       sodipodi:nodetypes="cccccc" />
    <path
       style="fill:none;fill-rule:evenodd;stroke:#000000;stroke-width:0.26458332px;stroke-linecap:butt;stroke-linejoin:miter;stroke-opacity:1"
       d="m 77.205531,109.47794 c 3.849229,0.51331 5.280303,-0.85801 8.253931,-2.97401"
       id="path868"
       inkscape:connector-curvature="0"
       sodipodi:nodetypes="cc" />
    <path
       style="fill:none;fill-rule:evenodd;stroke:#000000;stroke-width:0.26458332px;stroke-linecap:butt;stroke-linejoin:miter;stroke-opacity:1"
       d="m 76.439084,105.43457 c 1.046371,0.42447 2.148958,0.33548 3.085711,-0.0739 0.01835,-3.7e-4 0.03675,10e-4 0.05471,0.005"
       id="path882"
       inkscape:connector-curvature="0"
       sodipodi:nodetypes="ccc" />
    <path
       style="fill:#ffff00;fill-rule:evenodd;stroke:#000000;stroke-width:0.26458332px;stroke-linecap:butt;stroke-linejoin:miter;stroke-opacity:1"
       d="m 70.009025,87.804276 c -2.462834,1.42891 -4.770799,3.116696 -6.922997,4.978842 -1.088462,1.681826 -1.775688,5.652805 0.381582,6.288772 1.762694,-0.652761 2.047982,-4.489738 4.360963,-3.470924 0.748505,1.074002 1.746471,0.891851 1.866666,-0.487498 1.507249,-1.594786 3.981492,1.498621 5.442284,-0.702302 2.15526,-0.643619 4.524215,0.330121 6.666166,0.139893 1.672951,1.037708 3.635073,1.743195 5.450384,1.014593 2.352436,1.174366 5.110446,0.933004 7.401663,1.913847 1.791849,1.680071 1.257033,4.349601 1.707652,6.540571 0.390681,2.9622 8.2e-5,5.93524 -0.611506,8.83583 -0.692101,2.52225 0.252815,5.80397 3.004902,6.55902 2.382996,0.81743 3.816496,-1.67564 3.615746,-3.72965 1.92962,-8.00703 -4.676049,-15.33531 -4.834991,-16.190385 C 96.998518,85.147936 93.435921,91.563176 84.410742,85.407909 72.8088,76.849873 74.366514,85.80732 70.009025,87.804276 Z"
       id="path945"
       inkscape:connector-curvature="0"
       sodipodi:nodetypes="cccccccccccccccc" />
    <path
       style="fill:#f2f2f2;fill-rule:evenodd;stroke:#000000;stroke-width:0.26458332px;stroke-linecap:butt;stroke-linejoin:miter;stroke-opacity:1"
       d="m 66.187756,91.579436 c 8.082695,-2.103498 21.514259,-1.610488 27.892743,2.010734 3.791666,-0.574337 1.483785,-13.593349 -1.711348,-11.959145 -3.411475,-0.06142 -1.599926,-5.288879 -5.909999,-2.729201 -1.493204,0.678117 -1.992155,-1.933555 -3.465888,-0.787033 -4.169296,2.068235 -2.615604,-1.760348 -6.747869,0.518381 -0.945278,0.631108 -2.150139,0.471645 -2.991336,-0.238166 -3.956451,0.06147 -7.914986,11.621912 -7.066303,13.184456 z"
       id="path819"
       inkscape:connector-curvature="0"
       sodipodi:nodetypes="ccccccccc" />
    <path
       style="fill:#ececec;fill-rule:evenodd;stroke:#000000;stroke-width:0.26458332px;stroke-linecap:butt;stroke-linejoin:miter;stroke-opacity:1"
       d="m 80.091463,127.58011 c -3.531891,-0.64096 0.400859,-13.08081 -7.342896,-8.62675 -3.291353,1.66461 4.530406,14.13087 0.451501,13.5971 -1.861438,7.25843 -5.666646,13.50902 -6.16124,21.54089 -0.153869,1.98531 1.99659,2.44828 3.526054,2.37628 2.410017,-0.0755 4.816806,-1.5381 7.227877,-1.46471 1.878815,0.0117 3.758465,1.43011 5.636103,1.35381 2.175407,-1.32227 3.467551,-3.67186 4.474422,-5.92364 0.78537,-3.20953 -0.05738,-6.52353 0.343228,-9.7718 0.07172,-4.52256 0.618346,-9.30476 -1.358509,-13.39835 -0.325988,-2.15194 -0.281048,-4.6827 0.608178,-6.57995 1.407556,-1.46101 1.202117,-3.07389 3.335711,-3.27542 1.924043,-1.68466 -1.203614,-2.92181 -2.407705,-3.0631 -5.13356,-1.70104 -1.006568,4.11016 -8.332724,13.23564 z"
       id="path967"
       inkscape:connector-curvature="0"
       sodipodi:nodetypes="cccccccccccccc" />
    <path
       style="fill:#ffccaa;fill-rule:evenodd;stroke:#000000;stroke-width:0.26458332px;stroke-linecap:butt;stroke-linejoin:miter;stroke-opacity:1"
       d="m 69.23378,143.457 c -4.285428,9.57778 -13.644138,15.57762 -8.58909,14.38197 1.938427,-0.42268 8.16634,-3.71523 9.140679,-5.57596 5.926444,-5.43865 6.004902,-14.92466 7.494632,-22.74163 0.452372,-4.41435 -0.528665,-7.58334 -5.490585,-7.9305 -2.409791,16.087 0.945208,12.4347 -2.555636,21.86612 z"
       id="path912"
       inkscape:connector-curvature="0"
       sodipodi:nodetypes="cccccc" />
    <path
       style="fill:#deaa87;fill-rule:evenodd;stroke:#000000;stroke-width:0.27777442px;stroke-linecap:butt;stroke-linejoin:miter;stroke-opacity:1"
       d="m 23.690182,176.69109 81.184758,-42.37937 1.39723,3.83084 c -27.382558,13.11678 -39.696456,19.18843 -82.01404,39.5842 z"
       id="path923"
       inkscape:connector-curvature="0"
       sodipodi:nodetypes="ccccc" />
    <path
       style="fill:#ffccaa;fill-rule:evenodd;stroke:#000000;stroke-width:0.26458332px;stroke-linecap:butt;stroke-linejoin:miter;stroke-opacity:1"
       d="m 90.145771,117.94872 c 1.925778,-0.4769 3.704254,1.03517 4.449057,2.69993 2.597799,4.911 5.461832,13.64161 1.610615,17.57232 -5.04768,7.20853 -10.103771,11.60734 -18.766117,13.35313 -1.251785,0.38414 -3.888663,0.41467 -3.418085,-1.27077 0.349109,-1.78343 3.648444,-3.29469 5.576741,-3.29191 11.847176,-7.89828 13.346757,-8.97107 11.954558,-21.72866 -3.144798,-1.35306 -3.583014,-6.64808 -1.406767,-7.33404 z"
       id="path897"
       inkscape:connector-curvature="0"
       sodipodi:nodetypes="ccccccccc" />
  </g>
</svg>
