<svg xmlns="http://www.w3.org/2000/svg" width="210mm" height="297mm" viewBox="0 0 210 297"><g stroke="#000"><path d="M83.923 153.209v14.433c-.562 2.021-.13 4.204-.89 6.184-1.8.94-4.087.796-5.625 2.251-2.002-.004-3.138 3.693-.37 3.044 4.213-.094 8.416 1.568 12.601.416 1.674-.502 4.2-1.513 3.819-3.679-.681-1.938-1.704-3.75-2.257-5.75-1.116-2.643-.762-5.57-1.407-8.318-.142-2.95-1.154-5.795-1.154-8.759-.535-2.3-3.542-1.401-4.566.034z" fill="#ececec" fill-rule="evenodd" stroke-width=".265"/><path d="M71.094 154.01c-.852 5.13-.637 10.475-2.389 15.427-.489 2.178-2.655 3.304-4.735 2.655-1.863-.457-3.438.662-4.563 2.02-1.012.96-2.006 2.645-1.024 3.934 1.467 1.45 3.557.086 5.305.5 2.862-.11 6.083.72 8.603-1.058 1.641-1.46 1.332-3.896 2.42-5.672 2.012-4.558 1.573-9.65 1.146-14.477-.317-1.45-.37-3.452-1.793-4.246-1.078-.066-1.85 1.218-2.97.918z" fill="#f2f2f2" fill-rule="evenodd" stroke-width=".265"/><path d="M71.79 121.59c-.726-1.259 1.938-2.746 3.046-3.36 2.824-1.321 6.022-1.814 8.593-3.664 2.47-.981 5.41-.076 7.514 1.343 1.691 1.827 2.65 4.194 4.156 6.172 1.621 2.525 2.367 5.587 1.869 8.565-.168 4.584 1.055 9.073 1.144 13.643.363 2.635 1.42 5.302.625 7.967-.81 2.757-.08 5.63-.34 8.358-1.406 2.326-4.296.818-6.108-.137-2.326-1.195-4.85-2.308-7.533-1.99-4.215.218-8.135 2.026-12.31 2.525-2.547.197-5.194.536-7.674.161-2.33-1.132-.175-3.36.416-4.913 1.216-2.745 3.363-5.137 3.572-8.247 1.501-7.388 6.085-22.706 3.525-26.138" fill="#00f" fill-rule="evenodd" stroke-width=".265"/><path d="M68.792 110.258c6.848 8.445 12.26 9.274 19.632 4.086 3.172-3.1 7.187-6.662 7.919-10.945.367-2.959.37-6.108-.828-8.886-1.628-2.778-4.935-3.596-7.663-4.846-2.603-1.449-5.32-3.083-8.405-3.019-13.569-1.391-17.63 14.52-10.655 23.61z" fill="#ffb380" fill-rule="evenodd" stroke-width=".265"/><path d="M74.946 101.496c.47-.81.521-2.032-.28-2.654-.654-.423-1.418-.64-2.16-.849-.743-.113-1.543.283-1.837.99-1.267 3.955 1.654 5.587 4.277 2.513z" fill="#e6e6e6" fill-rule="evenodd" stroke-width=".265"/><path d="M81.45 98.62c-.567.699-.688 1.624-1.042 2.428-.338 1.378.898 2.946 2.349 2.765 1.944-.469 2.125-2.474 2.074-4.034-.178-.648-.45-1.44-1.176-1.633-.76-.08-1.55.075-2.205.473z" fill="#ececec" fill-rule="evenodd" stroke-width=".265"/><path d="M77.206 109.478c3.849.513 5.28-.858 8.253-2.974M76.44 105.435c1.045.424 2.148.335 3.085-.074a.23.23 0 0 1 .055.005" fill="none" stroke-width=".265"/><path d="M70.009 87.804c-2.463 1.43-4.77 3.117-6.923 4.98-1.088 1.68-1.776 5.652.382 6.288 1.762-.653 2.048-4.49 4.36-3.471.75 1.074 1.747.892 1.867-.488 1.507-1.594 3.982 1.5 5.443-.702 2.155-.643 4.524.33 6.666.14 1.673 1.038 3.635 1.743 5.45 1.015 2.353 1.174 5.11.933 7.402 1.913 1.792 1.68 1.257 4.35 1.707 6.541.391 2.962 0 5.935-.611 8.836-.692 2.522.253 5.804 3.005 6.559 2.383.817 3.816-1.676 3.616-3.73 1.93-8.007-4.677-15.335-4.835-16.19-.54-14.347-4.102-7.932-13.127-14.087-11.602-8.558-10.044.4-14.402 2.396z" fill="#ff0" fill-rule="evenodd" stroke-width=".265"/><path d="M66.188 91.58c8.082-2.104 21.514-1.611 27.892 2.01 3.792-.574 1.484-13.593-1.71-11.959-3.412-.061-1.6-5.289-5.91-2.73-1.494.679-1.993-1.933-3.467-.786-4.169 2.068-2.615-1.76-6.748.518-.945.631-2.15.472-2.99-.238-3.957.061-7.916 11.622-7.067 13.184z" fill="#f2f2f2" fill-rule="evenodd" stroke-width=".265"/><path d="M80.091 127.58c-3.531-.64.401-13.08-7.342-8.627-3.292 1.665 4.53 14.131.451 13.597-1.861 7.259-5.667 13.51-6.161 21.541-.154 1.986 1.996 2.449 3.526 2.377 2.41-.076 4.817-1.538 7.228-1.465 1.879.012 3.758 1.43 5.636 1.354 2.175-1.323 3.467-3.672 4.474-5.924.786-3.21-.057-6.523.344-9.772.071-4.522.618-9.304-1.359-13.398-.326-2.152-.281-4.683.608-6.58 1.408-1.461 1.202-3.074 3.336-3.275 1.924-1.685-1.204-2.922-2.408-3.064-5.133-1.7-1.006 4.11-8.333 13.236z" fill="#ececec" fill-rule="evenodd" stroke-width=".265"/><path d="M69.234 143.457c-4.286 9.578-13.644 15.578-8.59 14.382 1.94-.423 8.167-3.715 9.141-5.576 5.927-5.439 6.005-14.925 7.495-22.742.452-4.414-.529-7.583-5.49-7.93-2.41 16.087.945 12.435-2.556 21.866z" fill="#fca" fill-rule="evenodd" stroke-width=".265"/><path d="M23.69 176.691l81.185-42.38 1.397 3.832c-27.382 13.116-39.696 19.188-82.014 39.584z" fill="#deaa87" fill-rule="evenodd" stroke-width=".278"/><path d="M90.146 117.949c1.926-.477 3.704 1.035 4.449 2.7 2.598 4.91 5.462 13.641 1.61 17.572-5.047 7.208-10.103 11.607-18.766 13.353-1.251.384-3.888.415-3.418-1.27.35-1.784 3.649-3.295 5.577-3.293 11.847-7.898 13.347-8.97 11.955-21.728-3.145-1.353-3.583-6.648-1.407-7.334z" fill="#fca" fill-rule="evenodd" stroke-width=".265"/></g></svg>