<svg xmlns="http://www.w3.org/2000/svg" width="402.624" height="352.084" viewBox="0 0 106.528 93.155"><path d="M57.783 25.926c.002-5.216.39-11.967.753-15.302.226-2.079.224-2.103-.23-2.835-1.534-2.467.902-6.952 2.81-5.174 1.035.965.476 3.092-.84 5.21-1.74 2.8-2.303 10.997-1.929 18.217zm10.144-2.417c.277-.143 1.608-1.241 2.96-2.44 1.818-1.613 3.225-2.65 5.415-3.99 1.627-.996 3.285-1.95 3.685-2.12.813-.345 2.707-.392 3.507-.086 1.14.435 1.607 1.52 1.08 2.506-.505.942-2.696 1.158-6.3.623-1.838-.273-2.024-.271-2.604.027-1.804.927-6.768 5.294-6.768 5.954 0 0-1.251-.331-.975-.474zm-15.784 1.905c-2.505-7.482-4.69-8.85-10.349-11.859-1.449-.77-3-1.748-3.449-2.172-.707-.669-.815-.875-.815-1.56 0-1.482 1.213-1.979 2.723-1.115 1.152.659 1.803 1.599 1.938 2.797.064.565.187 1.165.273 1.334.086.168 3.321 2.478 4.713 3.376 1.978 1.275 4.213 5.013 5.462 9.199" fill="#0000d4"/><path d="M62.522 72.69c1.342-3.88 3.963-7.768 2.947-12.047-1.289-4.412-7.28-5.983-10.93-3.507-3.04 1.752-5.445 5.036-9.225 5.155-4.501.63-9.669-1.94-10.863-6.54-1.364-4.72 1.497-10.162 6.128-11.775 2.325-1.123 5.054-1.202 7.494-.42 3.601.674 7.245 1.169 10.779 2.158.465 1.026 3.407.645 1.376-.218-1.718-.916-5.21.102-5.438-2.597.314-2.177 2.733-2.993 4.425-3.904 3.931-1.77 9.233-1.594 12.224 1.841 2.688 3.35 2.024 7.99 1.097 11.865-1.822 7.357-4.98 14.494-9.902 20.313l-.127-.138z" fill="#d7e3f4"/><path d="M37.494 73.939c-6.197-2.72-10.076-8.716-12.834-14.635-2.506-5.348-4.219-11.605-2.337-17.417 1.944-4.715 6.636-7.46 11.121-9.365 5.004-2.043 11.482-1.255 15.08 3.039 1.34 1.649 2.37 3.745 2.264 5.906-.51 2.762-3.354 1.712-5.127 1.15-4.827-.477-9.717 2.766-11.422 7.26-1.298 3.63-.367 8.14 2.736 10.575 1.143 2.584-1.415 5.232-.226 7.81-.125 2.301 1.955 3.925 2.21 6.137-.548.045-.926-.461-1.465-.46zm-2.852-32.33c3.262-3.326 8.402-3.992 12.771-2.931-3.688-1.887-8.07-.68-11.499 1.21-.406-.044-2.404 1.716-1.272 1.72z" fill="#afc6e9"/><path d="M78.584 62.713c.281-2.43-.363-5.924-3.364-6.143-2.854.07-3.16-2.427-2.065-4.485.827-3.87 1.29-8.5-1.42-11.756-3.286-1.59-.7-5.236 1.933-5.808 1.68-1.259 4.946 1.98 5.167 1.183-2.37-2.724-7.587-2.113-8.852 1.437-1.765 3.614-3.533-2.648-.704-3.407 4.566-2.94 11.107-3.77 15.719-.491 3.283 3.03 2.79 8.016 1.825 11.952-1.59 5.872-4.76 11.137-7.174 16.684-.255.422-1.553 3.274-1.065.834z" fill="#87aade"/><path d="M51.44 43.811c-.638-.853.089-1.952-.27-2.903-.438-3.409-2.367-6.795-5.52-8.351-1.322-.671-2.757-1.078-4.197-1.408.397-.662 1.082-1.09 1.591-1.662 1.616-1.55 3.699-2.574 5.89-3.001.913-.168 1.854-.125 2.766-.021.906.273 1.046 1.31 1.17 2.107.87 3.892 1.338 7.93 3.023 11.586-.139 1-1.203 1.501-1.74 2.281-.716.711-1.59 1.661-2.713 1.372zM55.663 38.385c-1.179-3.143-1.636-6.486-2.288-9.763-.135-.342-.342-1.17.262-1.108.475.226.971.434 1.51.442.55.039 1.099-.012 1.646-.048.42-.282 1.085-.165 1.263.344.163.44-.022.907.062 1.363.107 2.88.091 5.775-.274 8.636-.151.62-.481 1.347-1.151 1.527-.676.14-.774-.683-.922-1.146a1.621 1.621 0 0 0-.107-.247z" fill="#3771c8"/><path d="M58.163 38.606c.754-3.414.394-6.925.347-10.385-.298-.595.284-1.089.797-1.27 1.573-.847 3.112-1.81 4.843-2.315.897-.266 1.839-.402 2.774-.334.686.359-.04 1.058-.387 1.385-.423.456-.743.994-1.132 1.48-2.224 3.074-3.845 6.602-4.598 10.327-.352.818-1.37.795-2.042 1.198-.21.14-1.005.594-.602-.086z" fill="#3771c8"/><path d="M61.382 36.917c.965-4.504 3.463-8.518 6.41-11.994 1.157-.33 2.194.47 3.073 1.108a8.884 8.884 0 0 1 3.192 3.457c.351.772-.057 1.858-.953 1.989-1.77.468-3.462 1.304-4.817 2.547-.804.325-.89 1.311-.843 2.06.052.5.097 1.202-.485 1.408-.716.269-1.438-.168-2.165-.069-1.179.033-2.36.262-3.54.096.004-.21.168-.388.128-.602z" fill="#3771c8"/></svg>