<?xml version="1.0" encoding="UTF-8" standalone="no"?>
<!-- Created with Inkscape (http://www.inkscape.org/) -->

<svg
   xmlns:dc="http://purl.org/dc/elements/1.1/"
   xmlns:cc="http://creativecommons.org/ns#"
   xmlns:rdf="http://www.w3.org/1999/02/22-rdf-syntax-ns#"
   xmlns:svg="http://www.w3.org/2000/svg"
   xmlns="http://www.w3.org/2000/svg"
   xmlns:sodipodi="http://sodipodi.sourceforge.net/DTD/sodipodi-0.dtd"
   xmlns:inkscape="http://www.inkscape.org/namespaces/inkscape"
   width="106.52758mm"
   height="93.155449mm"
   viewBox="0 0 106.52758 93.155449"
   version="1.1"
   id="svg8"
   inkscape:export-filename="/home/lili/bitmap.png"
   inkscape:export-xdpi="96"
   inkscape:export-ydpi="96"
   inkscape:version="0.92.3 (unknown)"
   sodipodi:docname="liliya.svg">
  <defs
     id="defs2" />
  <sodipodi:namedview
     id="base"
     pagecolor="#ffffff"
     bordercolor="#666666"
     borderopacity="1.0"
     inkscape:pageopacity="0.0"
     inkscape:pageshadow="2"
     inkscape:zoom="0.98994948"
     inkscape:cx="106.73399"
     inkscape:cy="188.7333"
     inkscape:document-units="mm"
     inkscape:current-layer="layer1"
     showgrid="false"
     fit-margin-top="0"
     fit-margin-left="0"
     fit-margin-right="0"
     fit-margin-bottom="0"
     inkscape:window-width="1360"
     inkscape:window-height="711"
     inkscape:window-x="0"
     inkscape:window-y="0"
     inkscape:window-maximized="1" />
  <metadata
     id="metadata5">
    <rdf:RDF>
      <cc:Work
         rdf:about="">
        <dc:format>image/svg+xml</dc:format>
        <dc:type
           rdf:resource="http://purl.org/dc/dcmitype/StillImage" />
        <dc:title />
      </cc:Work>
    </rdf:RDF>
  </metadata>
  <g
     inkscape:groupmode="layer"
     id="layer3"
     inkscape:label="Layer 3"
     style="display:inline">
    <path
       style="display:inline;fill:#0000d4;stroke-width:0.71428573"
       d="m 218.39367,97.989444 c 0.005,-19.715751 1.47506,-45.230233 2.84536,-57.835334 0.85424,-7.857925 0.84689,-7.948098 -0.87258,-10.714286 -5.79652,-9.325149 3.41049,-26.2747256 10.62261,-19.5556117 3.91216,3.6447277 1.80073,11.6869897 -3.17444,19.6910627 -6.57559,10.578835 -8.70485,41.564319 -7.29043,68.85205 z m 38.33895,-9.137914 c 1.04488,-0.540586 6.07786,-4.689057 11.18441,-9.218829 6.87276,-6.096478 12.18949,-10.014154 20.467,-15.08126 6.1503,-3.764927 12.41864,-7.370844 13.92965,-8.013147 3.071,-1.305428 10.22964,-1.482127 13.25448,-0.327165 4.30782,1.644838 6.0734,5.746904 4.07817,9.475029 -1.9043,3.558209 -10.18532,4.376554 -23.80789,2.352735 -6.94829,-1.032264 -7.64804,-1.024916 -9.84305,0.103367 -6.81732,3.504262 -25.57728,20.007705 -25.57728,22.500763 0,0 -4.73037,-1.250908 -3.68549,-1.791493 z m -59.65797,7.200697 c -9.46656,-28.27729 -17.72593,-33.444698 -39.11244,-44.820613 -5.47574,-2.912658 -11.34181,-6.606715 -13.03571,-8.209016 -2.67243,-2.527915 -3.07982,-3.307403 -3.07982,-5.892857 0,-5.604086 4.5819,-7.482326 10.28924,-4.217834 4.35415,2.490495 6.81692,6.043317 7.32728,10.570459 0.24071,2.135142 0.70417,4.403692 1.02993,5.041221 0.32575,0.637529 12.55339,9.369008 17.81278,12.7605 7.47607,4.820919 15.92402,18.947713 20.64374,34.76814"
       id="path76"
       inkscape:connector-curvature="0"
       sodipodi:nodetypes="cscssccccssscsccccssssccsc"
       transform="scale(0.26458333)" />
  </g>
  <g
     inkscape:groupmode="layer"
     id="layer4"
     inkscape:label="Layer 4" />
  <g
     inkscape:label="Layer 1"
     inkscape:groupmode="layer"
     id="layer1"
     transform="translate(-45.646162,-76.314797)">
    <path
       style="fill:#d7e3f4;stroke-width:0.1889881"
       d="m 108.16846,149.00391 c 1.34166,-3.87908 3.96279,-7.76742 2.94653,-12.04628 -1.28847,-4.41231 -7.27891,-5.98325 -10.92976,-3.50699 -3.039648,1.75169 -5.444759,5.03575 -9.225008,5.15549 -4.501192,0.63026 -9.668893,-1.93965 -10.863509,-6.53991 -1.36318,-4.72063 1.497742,-10.16215 6.128245,-11.77511 2.324893,-1.12362 5.054666,-1.20219 7.494057,-0.41939 3.601298,0.67275 7.244655,1.16789 10.778995,2.1569 0.46478,1.02616 3.40755,0.6449 1.37622,-0.21806 -1.71777,-0.91562 -5.20986,0.10193 -5.43768,-2.59676 0.31329,-2.17682 2.7322,-2.99314 4.42438,-3.90353 3.93135,-1.77075 9.2331,-1.59417 12.2243,1.84076 2.68757,3.34996 2.02409,7.98974 1.09671,11.86448 -1.82183,7.35728 -4.97911,14.49433 -9.90174,20.31342 l -0.127,-0.13812 z"
       id="path212"
       inkscape:connector-curvature="0" />
    <path
       style="fill:#afc6e9;stroke-width:0.1889881"
       d="M 83.139689,150.25374 C 76.94317,147.5336 73.063818,141.538 70.305937,135.61885 c -2.505957,-5.34772 -4.21875,-11.60539 -2.336794,-17.4173 1.943759,-4.71516 6.635584,-7.45995 11.121502,-9.36428 5.003725,-2.04356 11.481318,-1.25563 15.079737,3.03846 1.339825,1.64901 2.369956,3.74488 2.263584,5.90596 -0.509764,2.76181 -3.354175,1.7118 -5.12721,1.1507 -4.82655,-0.47766 -9.716793,2.76491 -11.421116,7.25853 -1.298072,3.63061 -0.36732,8.14078 2.735303,10.57591 1.143414,2.58377 -1.414817,5.23183 -0.225999,7.80928 -0.124811,2.30202 1.95567,3.9253 2.210697,6.13757 -0.548232,0.0455 -0.926788,-0.46094 -1.465952,-0.45994 z m -2.85106,-32.33012 c 3.261478,-3.32612 8.401214,-3.99212 12.77065,-2.93107 -3.687773,-1.88717 -8.070967,-0.67938 -11.499155,1.21041 -0.405946,-0.0438 -2.40363,1.71555 -1.271495,1.72066 z"
       id="path214"
       inkscape:connector-curvature="0" />
    <path
       style="fill:#87aade;stroke-width:0.1889881"
       d="m 124.23034,139.02794 c 0.28085,-2.43067 -0.36274,-5.92379 -3.36397,-6.14305 -2.85375,0.0705 -3.16064,-2.42664 -2.06549,-4.48528 0.82751,-3.86928 1.29021,-8.49964 -1.42061,-11.75542 -3.28538,-1.59087 -0.69925,-5.23658 1.93384,-5.8086 1.67955,-1.25862 4.9459,1.97981 5.16741,1.18351 -2.36946,-2.72441 -7.58712,-2.11348 -8.85208,1.43701 -1.76498,3.61386 -3.53312,-2.64846 -0.70452,-3.4075 4.56663,-2.9398 11.10716,-3.77002 15.71919,-0.49131 3.28268,3.02992 2.78967,8.01649 1.82554,11.95239 -1.59043,5.87211 -4.75997,11.13741 -7.17405,16.68458 -0.25567,0.42157 -1.55351,3.27333 -1.06526,0.83367 z"
       id="path216"
       inkscape:connector-curvature="0" />
    <path
       style="fill:#3771c8;stroke-width:0.1889881"
       d="m 97.085818,120.12625 c -0.637224,-0.85314 0.08938,-1.95247 -0.268772,-2.90309 -0.439115,-3.40889 -2.368083,-6.79563 -5.521625,-8.35137 -1.321398,-0.67111 -2.756735,-1.07815 -4.195937,-1.40795 0.396639,-0.66207 1.081617,-1.09041 1.590736,-1.66172 1.616254,-1.5512 3.698671,-2.57464 5.890077,-3.00142 0.913232,-0.16831 1.853432,-0.1245 2.766168,-0.0214 0.90529,0.27343 1.04592,1.30999 1.169474,2.10799 0.870334,3.89121 1.338509,7.92888 3.022881,11.58547 -0.1383,1.0004 -1.20218,1.50118 -1.73993,2.28127 -0.715516,0.71093 -1.589907,1.66073 -2.713072,1.3722 z"
       id="path218"
       inkscape:connector-curvature="0" />
    <path
       style="fill:#3771c8;stroke-width:0.1889881"
       d="m 101.30963,114.70012 c -1.17947,-3.14354 -1.636397,-6.48627 -2.288386,-9.76296 -0.135062,-0.34236 -0.342443,-1.16952 0.262302,-1.10876 0.47487,0.22597 0.970724,0.43465 1.510414,0.44236 0.54871,0.0388 1.09798,-0.0117 1.64535,-0.0479 0.41894,-0.28191 1.08439,-0.1649 1.26282,0.34369 0.16301,0.44076 -0.0217,0.90747 0.0616,1.3637 0.10723,2.87923 0.0916,5.77434 -0.27393,8.63591 -0.15104,0.61955 -0.481,1.34707 -1.15081,1.52634 -0.67604,0.14118 -0.77428,-0.68232 -0.92159,-1.14604 -0.0297,-0.0846 -0.0644,-0.1677 -0.10773,-0.24631 z"
       id="path220"
       inkscape:connector-curvature="0" />
    <path
       style="fill:#3771c8;stroke-width:0.1889881"
       d="m 103.80896,114.92037 c 0.75457,-3.41314 0.394,-6.92502 0.34755,-10.38482 -0.29819,-0.59505 0.28374,-1.08847 0.79681,-1.26913 1.57305,-0.8478 3.11227,-1.81113 4.84315,-2.3153 0.89657,-0.26641 1.83856,-0.40265 2.77401,-0.3343 0.68544,0.35893 -0.0405,1.05813 -0.3874,1.38469 -0.42311,0.45579 -0.74292,0.99394 -1.13154,1.48062 -2.2242,3.07347 -3.84532,6.60184 -4.59828,10.32659 -0.3519,0.81823 -1.37036,0.79473 -2.04185,1.19762 -0.21038,0.13963 -1.0055,0.59492 -0.60245,-0.086 z"
       id="path222"
       inkscape:connector-curvature="0" />
    <path
       style="fill:#3771c8;stroke-width:0.1889881"
       d="m 107.02817,113.23223 c 0.96474,-4.50412 3.46288,-8.5188 6.41049,-11.99463 1.15605,-0.33038 2.19375,0.47036 3.07271,1.1081 1.35292,0.83434 2.46073,2.04941 3.19204,3.45756 0.35079,0.77116 -0.0571,1.8573 -0.95303,1.9885 -1.76944,0.46845 -3.46251,1.30451 -4.81724,2.5474 -0.80384,0.32465 -0.88906,1.31059 -0.84263,2.05997 0.052,0.49954 0.0969,1.20166 -0.48552,1.40731 -0.71537,0.26893 -1.43799,-0.16775 -2.16442,-0.0684 -1.17916,0.0328 -2.3609,0.26167 -3.5395,0.0953 0.003,-0.2087 0.16723,-0.3878 0.1271,-0.60111 z"
       id="path224"
       inkscape:connector-curvature="0" />
  </g>
  <g
     inkscape:groupmode="layer"
     id="layer2"
     inkscape:label="Layer 2"
     style="display:none"
     transform="translate(-45.646162,-76.314797)">
    <path
       style="fill:#5f5fd3;stroke-width:0.37797621"
       d="m 95.307921,169.10727 c 1.121564,-5.10238 5.679259,-8.92652 7.207979,-13.98313 0.80584,-6.04389 -8.148556,-2.4984 -11.589198,-2.68434 -13.7384,2.17807 -26.75205,7.40292 -39.526345,12.71867 -2.710283,-6.18967 -4.030538,-13.01816 -5.273495,-19.66482 -2.081675,-10.67041 2.236179,-21.09188 7.16429,-30.32337 7.569877,-13.68463 17.700627,-26.735948 31.602299,-34.403255 10.221581,-5.214284 21.988789,-4.831662 33.111569,-4.055986 11.99203,0.974992 24.17401,6.283616 31.10795,16.450945 4.75387,7.032076 3.14772,16.105566 1.20373,23.814306 -4.79506,16.78113 -16.75956,30.59214 -30.61309,40.75527 -6.93251,4.66121 -14.17671,9.21364 -22.241356,11.59914 -0.658376,0.0501 -1.62107,0.40729 -2.154333,-0.22343 z M 84.929709,149.12134 c -2.896679,-2.89827 -3.900236,-13.05454 2.517719,-10.24179 5.480328,1.96584 9.290175,-2.84207 13.579662,-5.14381 4.00999,-2.48857 10.21184,0.41943 9.74404,5.46909 0.45546,3.80853 -4.31529,8.93073 -2.93602,11.52655 4.75628,-5.17348 7.62825,-11.66909 10.13178,-18.15239 4.85208,0.18358 6.98363,4.6441 5.32195,9.00786 0.41018,3.36184 3.18409,-5.36703 4.27602,-6.87274 3.12294,-7.10279 7.90273,-14.83896 5.32287,-22.85957 -1.89559,-4.98291 -7.83682,-4.66328 -12.27501,-4.86882 -0.28037,-3.56233 -6.36028,-5.17287 -5.33274,-7.634304 3.32894,-4.895434 8.369,-5.510646 13.69099,-4.748985 4.83093,-3.167121 -4.03994,-5.480515 -5.94208,-1.958866 -4.43224,1.580443 -6.8472,6.642719 -11.41079,7.515235 -3.19467,-0.282133 -8.88934,5.41559 -7.61285,-0.932796 0.15744,-5.64101 -0.5429,-11.956981 3.01625,-16.740786 2.59638,-4.726447 -4.60864,-5.011491 -3.66252,-0.124356 1.8539,4.393522 -0.25848,9.281916 0.10868,13.95427 -0.0806,2.393849 -0.16123,4.787698 -0.24184,7.181548 -4.75526,1.52203 -5.292875,-3.4924 -6.860364,-6.739779 -1.218319,-4.886668 -8.42681,-5.080089 -8.707414,-10.110202 -1.609571,-4.475901 -7.474786,-0.517359 -2.850594,1.854634 4.48302,2.502222 10.016466,4.607538 11.683883,10.003377 4.130149,5.82079 -5.643356,2.81548 -7.901117,6.71176 -2.885043,3.43963 -7.958611,1.39362 -11.49586,3.94351 -4.954516,2.51998 -10.879058,6.65799 -10.33858,12.94087 -0.01305,10.1631 4.971674,20.22044 12.678209,26.75663 0.82859,1.2766 8.453659,3.94027 5.495726,0.26386 z"
       id="path317"
       inkscape:connector-curvature="0" />
  </g>
</svg>
