<svg xmlns="http://www.w3.org/2000/svg" width="80" height="80" fill="none" stroke="currentColor" stroke-width="2" stroke-linecap="round" stroke-linejoin="round"><rect width="69.762" height="62.846" x="5.101" y="9.177" ry="5.177" fill="#aab8e1" fill-opacity=".98" stroke="#383a85"/><path d="M30.837 17.133c14.683.095 41.658-2.348 41.658-2.348s-21.02 46.298-22.194 49.932c-13.719 1.725-40.416-4.743-40.416-4.743s16.968-40.083 20.952-42.841z" fill="#e6e6e6" fill-opacity=".98" fill-rule="evenodd" stroke="none"/><path d="M28.475 32.102c2.231-.183 3.844-1.339 5.86-1.502.52 2.87 3.698 3.233 6.13 2.921 2.106.464 4.33 1.632 6.432.255 1.59-.457 2.959-1.572 3.584-2.883.193 5.197-4.215 14.35 2.733 3.816 1.064.838 1.9-2.176 2.64-.02.447.555 1.591.82 1.909.158" stroke="#000" stroke-width=".624" stroke-linecap="butt" stroke-linejoin="miter"/><path d="M25.014 18.855c4.988 5.441 18.505 23.541 18.505 23.541s-2.491-2.317-4.54-3.51c-4.69 2.079-24.051-24.93-24.051-24.93z" fill="#a02c2c" fill-opacity=".985" fill-rule="evenodd" stroke="none"/><path d="M27.397 42.607c1.492-.646 4.595-2.694 4.491.358 1.723 1.27 3.398-1.488 5.299-.746.214.831-.081 2.947 1.354 1.43 2.074-.767 4.692.51 6.474-1.114.822 1.38 1.637 2.729 3.533 2.176.54 1.788 2.518 1.288 3.58 1.948-.089.364.291.783.653.766M31.729 24.373c1.45-.831 2.793-1.87 4.17-2.848.925-.188 1.596-1.198 1.524.36 1.32.753 2.612-1.224 3.512.399 2.137-.534 3.604.678 4.803 2.273 2.013.624 4.088-1.246 5.836-.946 1.128 1.08 2.06-2.387 2.957-3.077.223-1.827.501 1.25 1.587 1.158.243.815.293 1.548 1.238 1.867" stroke="#000" stroke-width=".624" stroke-linecap="butt" stroke-linejoin="miter"/></svg>