<svg xmlns="http://www.w3.org/2000/svg" width="80" height="80" fill="none" stroke="currentColor" stroke-width="2" stroke-linecap="round" stroke-linejoin="round"><path transform="matrix(.92186 0 0 -.88185 23.394 26.024)" fill="#ffd46e" stroke="#ffa300" d="M-8.236-47.033h53.56V.059h-53.56z"/><path d="M45.206 9.29L18.54 30.53-7.826 9.29" fill="#ffd46e" fill-rule="evenodd" stroke="#ffa300" stroke-linecap="butt" stroke-linejoin="miter" transform="matrix(.92186 0 0 .88185 23.394 26.024)"/><path d="M34.184 45.068h13.687l-.187-16.322 9.75-.359L39.622 8.12l-18 18.653 10.5.359z" fill="green" fill-opacity=".941" fill-rule="evenodd" stroke="none"/><path d="M43.532 50.712c-1.252.027-3.007-1.519-4.155-.738-1.652 1.124-2.303 4.34-.912 5.752 1.113 1.13 4.178 1.463 4.849-.427.815-1.672.39-3.548.46-5.32.021 1.74.003 3.481.009 5.222.412 1.805 2.615 1.838 3.448.126 1.124-2.177.804-4.482-.815-6.25-3.995-3.082-9.915-2.877-11.576 1.215-.601 2.35-.348 6.079 1.292 7.92 5.136 4.883 12.32 2.637 13.907-3.703" stroke="#774e9e" stroke-width="1.803" stroke-linecap="butt" stroke-linejoin="miter"/></svg>