<svg xmlns="http://www.w3.org/2000/svg" width="80" height="80" fill="none" stroke="currentColor" stroke-width="2" stroke-linecap="round" stroke-linejoin="round"><g stroke="#516b3e" stroke-linecap="butt" stroke-linejoin="miter"><path d="M17.223 14.995c-1.55 2.212-8.112 5.828-8.907 10.138-1.423 7.712 7.56 14.31 8.52 22.085 1.216 9.859 7.113 16.134 16.653 18.464 6.889 1.683 12.697 8.508 19.751 7.603 5.194-.666 12.393-9.051 12.393-9.051L49.948 53.373s-2.913 1.02-3.679 2.172c-1.302 1.958 1.472 5.926-.774 6.879-6.327 2.684-12.666-6.177-17.04-11.224-4.333-4.998-8.134-17.74-8.134-17.74s4.357 1.38 5.81.18c1.603-1.323.58-5.973.58-5.973s-4.524-13.327-9.488-12.672z" fill="#aab849" fill-opacity=".98" fill-rule="evenodd"/><path d="M40.774 20.138C69.329 25.49 57.87 41.04 57.87 41.04M34.465 29.84c22.251 3.209 13.322 12.533 13.322 12.533M44.405 9.452c42.995 8.192 25.742 32 25.742 32"/></g></svg>