<svg xmlns="http://www.w3.org/2000/svg" width="80" height="80" fill="none" stroke="currentColor" stroke-width="2" stroke-linecap="round" stroke-linejoin="round"><rect width="71.186" height="69.559" x="5.492" y="4.542" ry="9.559" fill="#0cf" stroke="#fcffff" stroke-width=".624"/><path fill="#f9f9f9" stroke="#fcffff" stroke-width=".679" d="M10.618 12.332h57.52V65.09h-57.52z"/><path d="M28.317 45.347c7.049-5.812 16.342-15.496 24.635-21.555-4.133 6.656-14.043 16.676-18.309 23.827-.961 2.982-2.378 9.657-3.203 10.394-.646-.88-2.988-11.964-3.123-12.666z" fill="#08a" stroke="#fcffff" stroke-width=".144"/><path d="M8.947 7.231l62.504.288.287 63.297-61.452.49zm48.93 9.64c-1.813-.656-44.755 24.745-45.357 26.16.848.556 8.76 1.115 13.925 1.941 1.805 5.266 4.16 14.912 4.746 15.142.646-.106 12.116-8.224 12.46-8.282.548-.18 14.805 6.413 16.063 6.452.194-1.046-.443-40.662-1.836-41.413z" fill="#0cf" stroke="none"/></svg>