<svg xmlns="http://www.w3.org/2000/svg" width="80" height="80" fill="none" stroke="currentColor" stroke-width="2" stroke-linecap="round" stroke-linejoin="round"><rect width="75.936" height="69.608" x="2.013" y="6.077" ry="8.054" fill="green" stroke="#fcffff" stroke-width="1.002"/><path d="M16.108 62.742l3.164-9.205c-4.528-12.765-3.84-28.489 7.478-35.379 8-4.56 19.39-3.282 27.613.863 12.679 8.321 16.979 20.447 9.492 33.078-8.528 12.702-23.97 10.285-37.68 7.766z" fill="green" fill-rule="evenodd" stroke="#feffff" stroke-width="5.204" stroke-linecap="butt" stroke-linejoin="miter"/><path d="M37.21 35.27c-.601-2.684-3.272-8.242-5.006-8.053-3.24 2.89-4.44 7.27-4.073 11.497 4.154 11.393 10.443 13.885 19.649 15.14 2.52-1.12 6.144-3.895 6.783-5.807-.445-1.845-2.097-1.932-3.719-2.309-1.472-.512-5.07-1.041-5.73.753-.55 1.625-.387 2.43-2.27 2.634-4.244-.012-9.741-5.388-9.703-8.776.362-3.975 1.914-4.87 4.07-5.079z" fill="#fff6ff" fill-rule="evenodd" stroke="#fcffff" stroke-width="1.002" stroke-linecap="butt" stroke-linejoin="miter"/></svg>